PathFileType	4	(X/Y/Z)	T1_P1_NoVision_NoMovement_0_0-649.trc
DataRate	CameraRate	NumFrames	NumMarkers	Units	OrigDataRate	OrigDataStartFrame	OrigNumFrames
60	60	5	27	m	60	81	649
Frame#	Time	RHip			RKnee			RAnkle			RBigToe			RSmallToe			RHeel			LHip			LKnee			LAnkle			LBigToe			LSmallToe			LHeel			Neck			Head			Nose			RShoulder			RElbow			RWrist			RThumb			RIndex			RPinky			LShoulder			LElbow			LWrist			LThumb			LIndex			LPinky		
		X1	Y1	Z1	X2	Y2	Z2	X3	Y3	Z3	X4	Y4	Z4	X5	Y5	Z5	X6	Y6	Z6	X7	Y7	Z7	X8	Y8	Z8	X9	Y9	Z9	X10	Y10	Z10	X11	Y11	Z11	X12	Y12	Z12	X13	Y13	Z13	X14	Y14	Z14	X15	Y15	Z15	X16	Y16	Z16	X17	Y17	Z17	X18	Y18	Z18	X19	Y19	Z19	X20	Y20	Z20	X21	Y21	Z21	X22	Y22	Z22	X23	Y23	Z23	X24	Y24	Z24	X25	Y25	Z25	X26	Y26	Z26	X27	Y27	Z27
82	1.3666666666666667	-75.88787017524852	3831.9646971183925	-522.7113324319843	305.32819610757736	3967.258545453258	-505.0358239111827	629.3794595956937	4123.459640088959	-526.508279649349	726.9171738208719	4011.0736886612453	-502.29626821963814	733.129070616461	4057.349407160429	-596.2212652636589	663.2928419148102	4174.822369613987	-517.7872248395372	-105.17640941309362	3891.6580974466656	-328.13481997427095	260.286396702355	4025.701125561873	-335.38767708899474	599.2116184625734	4220.6059811097575	-352.587223197252	683.4996112134208	4156.620745529134	-251.34399004638524	658.2919423476451	4231.43279912645	-225.3509569574386	639.2098060252146	4264.596098364017	-380.6084080728685	-627.6412982178443	3676.2048671985217	-450.6740872351248	-877.7997893421921	3475.980932851248	-353.5360437519433	-699.0617277537897	3515.665939432601	-310.0324819058279	-557.1647750337698	3608.888495233059	-563.0463517675461	-314.07329807390244	3781.073970629448	-705.2966106196732	-109.77785965865033	3604.728296407483	-583.8343819249437	-31.401354835478735	3533.691576118725	-482.5186142679138	-17.018295145821945	3519.8824841623004	-469.6899555609392	-7.522501669586421	3596.4664004634446	-538.5300832014457	-615.4309878494051	3822.932299385637	-342.2870362828683	-378.19158721820014	3942.1922650491797	-268.4877437222602	-137.83747586859408	3926.9050105395954	-194.7429490877982	-13.259615100848146	3966.3134790328327	-213.05175043871233	11.28064571553033	3990.383293966485	-202.98308098582612	-11.998579228005282	3980.77089991466	-175.96187550296654
83	1.3833333333333333	-76.41214909487671	3860.0178450801445	-529.6858205312893	293.62495934376784	3960.8430413687165	-503.73954035824306	629.166907975409	4123.443478668876	-526.6428672913012	726.529674244283	4011.405027595279	-502.6614276059109	737.9708198018649	4077.606892028102	-610.9207287790165	663.0903769206832	4174.855714466661	-517.930013067089	-105.2446259103745	3891.6534441173153	-328.1446627552792	260.1778572175822	4025.411121335387	-335.2825106082043	599.1167952052058	4220.709520695845	-352.68252579389053	678.2951399635302	4134.2521697648435	-237.43575296652173	658.2987502508007	4231.344076524975	-225.2296614755517	632.3081021037693	4259.788096019825	-378.51691000254357	-627.6713366708965	3676.1580427821877	-450.680378001706	-877.7117244164403	3475.7085059840756	-353.3503088763861	-696.5828423127674	3499.787814086207	-298.0302132551112	-557.1498076642268	3608.6688995688287	-562.9671301815525	-314.1524892730701	3781.062900597427	-705.2716223882	-109.92513102476701	3605.19286502689	-584.1387647098977	-36.408521360652635	3534.4466839200277	-483.3700024871494	-20.215062299976566	3533.175988879694	-481.20399325285626	-12.96788259454773	3593.4907190988406	-536.961009890525	-615.4894016164919	3822.8992392122946	-342.3306583079485	-378.21433640154294	3942.1206191834613	-268.4511654168421	-138.6338827312704	3952.920974870181	-198.77397166922538	-13.25555823146058	3966.5135440244044	-213.02240355561355	11.386010297085862	3990.592372724861	-202.96918778890776	-11.95347513177243	4008.248672763749	-180.32855083134083
84	1.4	-76.47276241991388	3859.610012641356	-529.624135101376	306.37493272190727	3968.851254474459	-512.2384313455017	635.7487594445299	4126.005474227645	-525.7973710636777	722.055791545072	4011.919384687014	-503.25891855835255	732.9992818235677	4046.5680688396674	-602.6388791459583	653.223752430228	4143.382396142007	-511.2883748323987	-105.2678374129337	3891.5636682978197	-328.12738578392964	260.21710812879473	4025.55868396773	-335.3165592235791	599.1622970292052	4220.616228354953	-352.6249020201201	688.8969982965633	4159.586656439169	-250.76931832982152	658.3633366226367	4231.184033306421	-225.18623827128604	632.2907044569022	4259.286262556563	-378.3435450396829	-627.6782542570305	3676.089670073382	-450.64164855904045	-877.7058700296107	3475.707012149405	-353.18973280946835	-696.5985898064894	3499.5848447473536	-298.0087832149178	-557.162492983098	3608.7172558477496	-562.9871515165892	-314.18840115772167	3780.905899911207	-705.2225473830221	-110.54160382723846	3605.1012635976763	-578.2629441680094	-36.278642414812666	3534.359084566898	-483.0579727232485	-20.9060491407493	3517.9871771838593	-468.4847401196608	-12.966204210115121	3593.305850480282	-536.9238125633852	-615.5039752751964	3822.8296793153827	-342.3285446427248	-378.2312274404224	3942.1481979926	-268.5335803552046	-137.78099519585476	3926.801305910551	-194.76307612875215	-13.284278017012609	3966.2334604955336	-212.9858144639303	11.291885126885584	3990.342900964127	-202.89374679425222	-12.062937177352675	4007.8493171747573	-180.1632524224829
85	1.4166666666666667	-75.27462881047566	3832.538633272688	-529.5279128168364	300.2416277483115	3966.014114445346	-512.7390054570386	635.6923476312045	4127.428234690703	-528.8059953532912	720.3476144651548	4012.314004928294	-503.60747868781976	732.0963206295123	4057.197941938322	-596.4297239329678	663.1549340939894	4174.692992228721	-517.9172951110635	-105.17875152463395	3891.670206595896	-328.17120707205504	260.16755649128993	4025.637634898161	-335.3455213544496	603.6865758692982	4252.405317305435	-358.36321368567417	683.35361425525	4136.483098301257	-236.69637695351915	659.8601448538317	4204.415158790414	-219.84206422725137	638.8404363250337	4296.979118288214	-386.743776937208	-627.6529636652309	3676.3194464921853	-450.7460443596615	-870.6463642943496	3464.2636463874533	-347.70669686581334	-696.5932829455708	3499.7540021401155	-298.1362167334212	-557.1386221175493	3608.933555786136	-562.9540435362329	-314.18361520263005	3780.6671272483386	-705.0281039090738	-110.49476335276208	3604.888688030797	-578.1495475166056	-36.3359078745049	3558.806041613334	-489.22057465348485	-15.669553921432218	3536.472561647687	-482.51100041955107	-8.015336606735742	3594.867493765167	-538.6271948344987	-615.5109301781373	3823.2309887998854	-342.4885199418829	-379.0720795870973	3962.028151425293	-281.6687728945823	-143.05078891280172	3922.8326803034643	-193.2302298016912	-13.635661871519137	3964.8929359197464	-212.49242096642928	6.437766374541234	3986.3787360172223	-201.52868578097883	-17.059727562342054	4004.191690873407	-178.77705184015252
86	1.4333333333333333	-75.37570963707412	3832.4398854279375	-529.4681105586101	300.2551930826898	3965.7024947186146	-512.3404558253516	635.633701866882	4125.487324481265	-525.6489450338407	720.9033459350167	4012.376245328886	-503.4046608085066	732.3429851094909	4057.0538691201286	-596.2706403169116	658.33492291391	4142.394501748795	-510.563841625889	-105.29419300279949	3891.538107066178	-328.13947690255065	260.0692850984464	4025.209858561076	-335.25054809164504	599.233858921705	4220.380996030035	-352.59409780658484	677.9267032443005	4132.710154623871	-237.21672947389695	654.0608299294314	4201.245468736503	-220.72435958253078	639.3974052425987	4264.197216266624	-380.4981242989343	-627.6006275335536	3676.2064363968584	-450.7005288423477	-873.7974381697258	3478.152597406358	-353.96990332651933	-696.5437460992011	3499.570771981998	-298.09039619437004	-557.1320086164623	3608.775250118587	-562.9120987258784	-319.0979097981127	3779.990738190405	-705.203517104851	-109.83474907180457	3604.739697436967	-583.8885319335168	-36.40822963221578	3558.6397576045665	-489.14534488251235	-20.724750575771314	3536.055902911464	-482.8026384604798	-7.936848424545925	3594.9499332831856	-538.4880001457062	-615.4963793455927	3823.1497733449055	-342.4323495961493	-378.2046370787026	3942.451074505347	-268.60868060043174	-143.03783084683576	3923.014944973516	-193.23485670917114	-18.49742436897982	3965.070427031221	-212.9218777884024	6.528037998388878	3986.4916622122564	-201.55653179499004	-16.90615854651409	3977.246755632243	-174.70025592654733
